<svg width="1440" height="3500" id="svg-container" viewBox="0 0 2320 6026" fill="none" xmlns="http://www.w3.org/2000/svg">
<g filter="url(#filter0_b_1855_3695)">
<path d="M2253.83 1583.32C2179.93 1484.27 2028.03 1438.54 1885.95 1423.07C1691.68 1401.92 1496.11 1428.9 1302.94 1444C1130.57 1457.48 949.36 1461.46 784.149 1415.7C633.716 1374.03 518.172 1289.5 449.651 1180.82C446.555 1175.9 443.551 1170.98 440.641 1166.04C496.474 1261.27 583.744 1343.31 713.881 1393.67C1036.64 1518.56 1408.27 1413.4 1748.36 1416.47C1928.46 1418.1 2144.74 1450.56 2246.6 1576.04C2278.61 1615.46 2297.2 1662.47 2294.68 1708.79C2297.3 1666.19 2282.84 1622.23 2253.83 1583.33V1583.32Z" stroke="url(#paint0_angular_1855_3695)" stroke-width="70" stroke-miterlimit="10" stroke-linejoin="round"/>
<path d="M171.821 2001.66C315.295 1904.34 513.345 1887.64 698.297 1889.01C898.279 1890.49 1098.49 1898.69 1298.35 1903.91C1486.1 1908.81 1675.48 1919.67 1863.35 1917.09C1982 1915.46 2118.12 1904.26 2211.09 1842.58C2249.14 1817.34 2273.53 1786.05 2285.71 1752.34C2284.3 1756.15 2282.74 1759.94 2280.98 1763.69C2256.12 1817 2199.17 1856.22 2132.24 1879.16C1988.84 1928.31 1821.07 1916.55 1668.3 1912.57C1468.9 1907.36 1269.51 1902.16 1070.11 1896.95C878.604 1891.95 679.906 1875.74 489.384 1896.72C347.736 1912.32 204.25 1957.42 115.803 2046.04C32.039 2129.96 27.8581 2225.92 71.9825 2311.92C18.1997 2201.31 52.5995 2082.54 171.834 2001.66H171.821Z" stroke="url(#paint1_angular_1855_3695)" stroke-width="70" stroke-miterlimit="10" stroke-linejoin="round"/>
<path d="M403.06 437.629C422.351 300.789 430.368 162.239 387.726 27.3586C387.527 26.7286 386.257 26.9986 386.456 27.6286C474.638 306.549 342.398 585.019 356.356 865.409C358.486 908.219 364.109 951.879 374.019 995.059C334.128 812.509 377.287 620.529 403.06 437.629Z" stroke="url(#paint2_angular_1855_3695)" stroke-width="70" stroke-miterlimit="10" stroke-linejoin="round"/>
<path d="M675.996 3318.41C779.724 3317.63 883.638 3319.64 987.539 3322.34C821.891 3316.89 649.918 3306.06 487.842 3329.73C349.78 3349.89 211.07 3407.05 151.293 3508C96.9417 3599.79 138.764 3699.73 227.939 3769.63C338.005 3855.92 495.45 3883.45 648.82 3889.27C842.769 3896.63 1039.22 3886.56 1233.26 3883.41C1279.35 3882.66 1325.65 3881.42 1372.02 3880.17C1178.58 3883.35 985.131 3887.24 791.672 3889.47C609.657 3891.57 408.855 3885.83 262.722 3792.81C130.601 3708.71 80.7209 3571.5 189.345 3461.2C302.692 3346.12 497.593 3319.76 675.996 3318.41Z" stroke="url(#paint3_angular_1855_3695)" stroke-width="70" stroke-miterlimit="10" stroke-linejoin="round"/>
<path d="M1000.1 2541.15C774.571 2579.28 493.498 2593.19 290.5 2506.13C314.646 2517.33 339.798 2526.98 365.611 2534.82C700.135 2636.4 1057.27 2522.31 1388.13 2472.11C1639.66 2433.95 1945.59 2437.8 2135.72 2569.19C2095.31 2540.29 2048.4 2515.9 1995.53 2497.52C1674.93 2386.03 1320.96 2486.9 1000.09 2541.15H1000.1Z" stroke="url(#paint4_angular_1855_3695)" stroke-width="70" stroke-miterlimit="10" stroke-linejoin="round"/>
<path d="M1998.19 3250.68C2058.76 3227.5 2113.99 3197.35 2160.36 3161.09C2044.04 3249.94 1874 3298.74 1704.71 3317.43C1562.76 3333.11 1418.66 3332.8 1275.57 3329.86C1237.14 3329.07 1198.68 3328.1 1160.19 3327.07C1441.06 3335.7 1745.24 3347.47 1998.19 3250.68Z" stroke="url(#paint5_angular_1855_3695)" stroke-width="70" stroke-miterlimit="10" stroke-linejoin="round"/>
<path d="M1758.87 3880.64C1899.65 3888.76 2056.63 3914.54 2150.3 4001.53C2249.11 4093.29 2232.72 4216.67 2153.57 4312.58C1945.72 4564.47 1515.23 4507.92 1192.4 4450C1013.76 4417.95 829.815 4384.27 644.797 4396C494.933 4405.5 354.45 4448.94 242.981 4525.73C190.535 4561.85 147.403 4603.46 113.969 4648.58C164.841 4581.63 236.472 4523.62 321.32 4480.44C477.627 4400.9 665.49 4385 849.224 4400.48C1197.05 4429.78 1572.8 4573 1919.96 4465.22C2133.22 4399.01 2315.22 4184.27 2169.71 4019.74C2099.6 3940.46 1977.48 3904.2 1857.59 3888.65C1759.03 3875.87 1658.6 3874.84 1558.35 3876.4C1625.4 3875.91 1692.35 3876.82 1758.86 3880.65L1758.87 3880.64Z" stroke="url(#paint6_angular_1855_3695)" stroke-width="70" stroke-miterlimit="10" stroke-linejoin="round"/>
<path d="M109.513 5131.3C259.84 5339.79 581.941 5421.84 872.461 5461.58C1215.41 5508.49 1595.28 5519.06 1869.95 5702.25C1985.18 5779.1 2069.79 5880.8 2085.36 5997.94C2085.44 5998.57 2086.76 5998.58 2086.68 5997.94C2057.67 5779.7 1802.02 5628.66 1544.58 5561.52C1207.44 5473.59 837.783 5488.59 507.175 5382.76C354.996 5334.05 213.639 5259.45 126.277 5151.32C63.2456 5073.3 30.0366 4981.88 29.6529 4890.49C28.9914 4972.77 55.0161 5055.74 109.5 5131.31L109.513 5131.3Z" stroke="url(#paint7_angular_1855_3695)" stroke-width="70" stroke-miterlimit="10" stroke-linejoin="round"/>
</g>
<g filter="url(#filter1_b_1855_3695)">
<path d="M2251.19 1583.32C2177.3 1484.27 2025.4 1438.54 1883.31 1423.07C1689.05 1401.92 1493.47 1428.9 1300.3 1444C1127.94 1457.48 946.728 1461.46 781.516 1415.7C631.083 1374.03 515.54 1289.5 447.018 1180.82C443.922 1175.9 440.919 1170.98 438.008 1166.04C493.841 1261.27 581.111 1343.31 711.248 1393.67C1034.01 1518.56 1405.63 1413.4 1745.73 1416.47C1925.82 1418.1 2142.11 1450.56 2243.97 1576.04C2275.97 1615.46 2294.56 1662.47 2292.05 1708.79C2294.67 1666.19 2280.21 1622.23 2251.19 1583.33V1583.32Z" stroke="white" stroke-opacity="0.02" stroke-width="54" stroke-miterlimit="10" stroke-linejoin="round"/>
<path d="M169.181 2001.66C312.654 1904.34 510.704 1887.64 695.656 1889.01C895.638 1890.49 1095.84 1898.69 1295.71 1903.91C1483.46 1908.81 1672.83 1919.67 1860.71 1917.09C1979.36 1915.46 2115.48 1904.26 2208.45 1842.58C2246.5 1817.34 2270.89 1786.05 2283.07 1752.34C2281.66 1756.15 2280.1 1759.94 2278.34 1763.69C2253.48 1817 2196.53 1856.22 2129.6 1879.16C1986.2 1928.31 1818.43 1916.55 1665.66 1912.57C1466.26 1907.36 1266.86 1902.16 1067.46 1896.95C875.964 1891.95 677.265 1875.74 486.744 1896.72C345.096 1912.32 201.609 1957.42 113.162 2046.04C29.3984 2129.96 25.2175 2225.92 69.3419 2311.92C15.5591 2201.31 49.9589 2082.54 169.194 2001.66H169.181Z" stroke="white" stroke-opacity="0.02" stroke-width="54" stroke-miterlimit="10" stroke-linejoin="round"/>
<path d="M400.42 437.629C419.71 300.789 427.728 162.239 385.085 27.3586C384.887 26.7286 383.617 26.9986 383.815 27.6286C471.998 306.549 339.757 585.019 353.715 865.409C355.845 908.219 361.469 951.879 371.378 995.059C331.488 812.509 374.646 620.529 400.42 437.629Z" stroke="white" stroke-opacity="0.02" stroke-width="54" stroke-miterlimit="10" stroke-linejoin="round"/>
<path d="M673.355 3318.41C777.084 3317.63 880.998 3319.64 984.898 3322.34C819.25 3316.89 647.278 3306.06 485.202 3329.73C347.139 3349.89 208.429 3407.05 148.653 3508C94.3011 3599.79 136.123 3699.73 225.298 3769.63C335.364 3855.92 492.809 3883.45 646.179 3889.27C840.128 3896.63 1036.58 3886.56 1230.62 3883.41C1276.71 3882.66 1323.01 3881.42 1369.38 3880.17C1175.94 3883.35 982.49 3887.24 789.031 3889.47C607.017 3891.57 406.214 3885.83 260.082 3792.81C127.96 3708.71 78.0802 3571.5 186.704 3461.2C300.051 3346.12 494.953 3319.76 673.355 3318.41Z" stroke="white" stroke-opacity="0.02" stroke-width="54" stroke-miterlimit="10" stroke-linejoin="round"/>
<path d="M997.461 2541.15C771.93 2579.28 490.858 2593.19 287.859 2506.13C312.005 2517.33 337.157 2526.98 362.97 2534.82C697.495 2636.4 1054.63 2522.31 1385.49 2472.11C1637.02 2433.95 1942.95 2437.8 2133.08 2569.19C2092.67 2540.29 2045.75 2515.9 1992.88 2497.52C1672.29 2386.03 1318.32 2486.9 997.447 2541.15H997.461Z" stroke="white" stroke-opacity="0.02" stroke-width="54" stroke-miterlimit="10" stroke-linejoin="round"/>
<path d="M1995.55 3250.68C2056.12 3227.5 2111.35 3197.35 2157.72 3161.09C2041.4 3249.94 1871.36 3298.74 1702.07 3317.43C1560.12 3333.11 1416.02 3332.8 1272.93 3329.86C1234.5 3329.07 1196.03 3328.1 1157.55 3327.07C1438.42 3335.7 1742.59 3347.47 1995.55 3250.68Z" stroke="white" stroke-opacity="0.02" stroke-width="54" stroke-miterlimit="10" stroke-linejoin="round"/>
<path d="M1756.23 3880.64C1897.01 3888.76 2053.99 3914.54 2147.66 4001.53C2246.47 4093.29 2230.08 4216.67 2150.93 4312.58C1943.08 4564.47 1512.59 4507.92 1189.76 4450C1011.12 4417.95 827.174 4384.27 642.156 4396C492.292 4405.5 351.809 4448.94 240.341 4525.73C187.894 4561.85 144.762 4603.46 111.328 4648.58C162.2 4581.63 233.831 4523.62 318.679 4480.44C474.987 4400.9 662.849 4385 846.584 4400.48C1194.41 4429.78 1570.16 4573 1917.32 4465.22C2130.58 4399.01 2312.58 4184.27 2167.07 4019.74C2096.96 3940.46 1974.84 3904.2 1854.95 3888.65C1756.39 3875.87 1655.96 3874.84 1555.71 3876.4C1622.76 3875.91 1689.71 3876.82 1756.22 3880.65L1756.23 3880.64Z" stroke="white" stroke-opacity="0.02" stroke-width="54" stroke-miterlimit="10" stroke-linejoin="round"/>
<path d="M106.873 5131.3C257.2 5339.79 579.301 5421.84 869.82 5461.58C1212.77 5508.49 1592.64 5519.06 1867.31 5702.25C1982.53 5779.1 2067.14 5880.8 2082.72 5997.94C2082.8 5998.57 2084.12 5998.58 2084.04 5997.94C2055.03 5779.7 1799.38 5628.66 1541.94 5561.52C1204.79 5473.59 835.143 5488.59 504.534 5382.76C352.355 5334.05 210.998 5259.45 123.636 5151.32C60.605 5073.3 27.396 4981.88 27.0123 4890.49C26.3508 4972.77 52.3755 5055.74 106.859 5131.31L106.873 5131.3Z" stroke="white" stroke-opacity="0.02" stroke-width="54" stroke-miterlimit="10" stroke-linejoin="round"/>
</g>
<defs>
<filter id="filter0_b_1855_3695" x="-546.359" y="-549" width="3417.34" height="7123.42" filterUnits="userSpaceOnUse" color-interpolation-filters="sRGB">
<feFlood flood-opacity="0" result="BackgroundImageFix"/>
<feGaussianBlur in="BackgroundImageFix" stdDeviation="277"/>
<feComposite in2="SourceAlpha" operator="in" result="effect1_backgroundBlur_1855_3695"/>
<feBlend mode="normal" in="SourceGraphic" in2="effect1_backgroundBlur_1855_3695" result="shape"/>
</filter>
<filter id="filter1_b_1855_3695" x="-54" y="-54" width="2427.35" height="6133.42" filterUnits="userSpaceOnUse" color-interpolation-filters="sRGB">
<feFlood flood-opacity="0" result="BackgroundImageFix"/>
<feGaussianBlur in="BackgroundImageFix" stdDeviation="27"/>
<feComposite in2="SourceAlpha" operator="in" result="effect1_backgroundBlur_1855_3695"/>
<feBlend mode="normal" in="SourceGraphic" in2="effect1_backgroundBlur_1855_3695" result="shape"/>
</filter>
<radialGradient id="paint0_angular_1855_3695" cx="0" cy="0" r="1" gradientUnits="userSpaceOnUse" gradientTransform="translate(1367.81 1437.41) rotate(90) scale(271.375 927.172)">
<stop offset="0.085" stop-color="#76C182"/>
<stop offset="0.26" stop-color="#B0CD1A"/>
<stop offset="0.485" stop-color="#029ACA"/>
<stop offset="0.735" stop-color="#2C2982"/>
<stop offset="1" stop-color="#B80B79"/>
</radialGradient>
<radialGradient id="paint1_angular_1855_3695" cx="0" cy="0" r="1" gradientUnits="userSpaceOnUse" gradientTransform="translate(1164.97 2032.13) rotate(90) scale(279.79 1120.75)">
<stop offset="0.085" stop-color="#76C182"/>
<stop offset="0.26" stop-color="#B0CD1A"/>
<stop offset="0.485" stop-color="#029ACA"/>
<stop offset="0.735" stop-color="#2C2982"/>
<stop offset="1" stop-color="#B80B79"/>
</radialGradient>
<radialGradient id="paint2_angular_1855_3695" cx="0" cy="0" r="1" gradientUnits="userSpaceOnUse" gradientTransform="translate(387.006 511.029) rotate(90) scale(484.029 31.6938)">
<stop offset="0.085" stop-color="#76C182"/>
<stop offset="0.26" stop-color="#B0CD1A"/>
<stop offset="0.485" stop-color="#029ACA"/>
<stop offset="0.735" stop-color="#2C2982"/>
<stop offset="1" stop-color="#B80B79"/>
</radialGradient>
<radialGradient id="paint3_angular_1855_3695" cx="0" cy="0" r="1" gradientUnits="userSpaceOnUse" gradientTransform="translate(749.519 3603.49) rotate(90) scale(288.413 622.503)">
<stop offset="0.085" stop-color="#76C182"/>
<stop offset="0.26" stop-color="#B0CD1A"/>
<stop offset="0.485" stop-color="#029ACA"/>
<stop offset="0.735" stop-color="#2C2982"/>
<stop offset="1" stop-color="#B80B79"/>
</radialGradient>
<radialGradient id="paint4_angular_1855_3695" cx="0" cy="0" r="1" gradientUnits="userSpaceOnUse" gradientTransform="translate(1213.11 2511.4) rotate(90) scale(64.1923 922.609)">
<stop offset="0.085" stop-color="#76C182"/>
<stop offset="0.26" stop-color="#B0CD1A"/>
<stop offset="0.485" stop-color="#029ACA"/>
<stop offset="0.735" stop-color="#2C2982"/>
<stop offset="1" stop-color="#B80B79"/>
</radialGradient>
<radialGradient id="paint5_angular_1855_3695" cx="0" cy="0" r="1" gradientUnits="userSpaceOnUse" gradientTransform="translate(1660.27 3246.89) rotate(90) scale(85.792 500.087)">
<stop offset="0.085" stop-color="#76C182"/>
<stop offset="0.26" stop-color="#B0CD1A"/>
<stop offset="0.485" stop-color="#029ACA"/>
<stop offset="0.735" stop-color="#2C2982"/>
<stop offset="1" stop-color="#B80B79"/>
</radialGradient>
<radialGradient id="paint6_angular_1855_3695" cx="0" cy="0" r="1" gradientUnits="userSpaceOnUse" gradientTransform="translate(1168.02 4262.21) rotate(90) scale(386.368 1054.05)">
<stop offset="0.085" stop-color="#76C182"/>
<stop offset="0.26" stop-color="#B0CD1A"/>
<stop offset="0.485" stop-color="#029ACA"/>
<stop offset="0.735" stop-color="#2C2982"/>
<stop offset="1" stop-color="#B80B79"/>
</radialGradient>
<radialGradient id="paint7_angular_1855_3695" cx="0" cy="0" r="1" gradientUnits="userSpaceOnUse" gradientTransform="translate(1058.16 5444.46) rotate(90) scale(553.963 1028.52)">
<stop offset="0.085" stop-color="#76C182"/>
<stop offset="0.26" stop-color="#B0CD1A"/>
<stop offset="0.485" stop-color="#029ACA"/>
<stop offset="0.735" stop-color="#2C2982"/>
<stop offset="1" stop-color="#B80B79"/>
</radialGradient>
</defs>
</svg>
