<?xml version="1.0" encoding="UTF-8"?>
<svg id="Layer_1" xmlns="http://www.w3.org/2000/svg" xmlns:xlink="http://www.w3.org/1999/xlink" viewBox="0 0 1920 5721">
  <defs>
    <style>
      .cls-1 {
        fill: none;
        stroke: url(#linear-gradient);
        stroke-miterlimit: 10;
        stroke-width: 50px;
      }
    </style>
    <linearGradient id="linear-gradient" x1="40.54" y1="2845.27" x2="1882.55" y2="2845.27" gradientUnits="userSpaceOnUse">
      <stop offset="0" stop-color="#43ac50"/>
      <stop offset=".06" stop-color="#afcc36"/>
      <stop offset=".12" stop-color="#019acc"/>
      <stop offset=".2" stop-color="#2f2f82"/>
      <stop offset=".28" stop-color="#b61e7a"/>
      <stop offset=".36" stop-color="#9d2b24"/>
      <stop offset=".42" stop-color="#ea5e50"/>
      <stop offset=".48" stop-color="#e5a26a"/>
      <stop offset=".55" stop-color="#81b3be"/>
      <stop offset=".63" stop-color="#cd8cbd"/>
      <stop offset=".7" stop-color="#5b5fab"/>
      <stop offset=".77" stop-color="#c0278d"/>
      <stop offset=".84" stop-color="#75bcd3"/>
      <stop offset=".92" stop-color="#5f75b8"/>
      <stop offset=".97" stop-color="#948dc4"/>
    </linearGradient>
  </defs>
  <path stroke-width="80" class="cls-1" d="M370.47,154.96c9.44,16.5,23.64,38.96,43.68,63.34,70.3,85.51,153.52,122.92,192.2,139.78,96.45,42.06,178.16,46.39,266.46,50.23,51.34,2.24,132.49-5.03,292.67-19.66,215.56-19.68,248.09-22.68,310.15-19.66,50.4,2.46,154,10.54,264.28,63.34,60.37,28.91,89.52,55.31,107.02,89.55,5.74,11.23,31.6,59.67,15.29,113.57-17.94,59.26-74.9,86.2-110.84,103.2-58.76,27.79-111.87,30.29-134.32,31.12-205.88,7.66-411.61-1.48-516-4.91-77.65-2.55-57.23-.57-142.51-3.28-209.26-6.65-255.84-16.19-394.78-14.74-67.48.7-147.97,3.91-244.08,26.21-45.47,10.55-84.62,23.1-126.13,47.5-40.19,23.62-86.16,50.64-109.75,104.84-28.91,66.4-6.04,131.79,0,149.07,35.38,101.18,131.79,147.28,183.47,172,103.57,49.53,200.75,50.15,301.41,50.78,58.29.37,99.48-4.05,168.72-11.47,33.41-3.58,94.71-10.85,301.41-49.14,158.55-29.37,170.7-34.03,222.78-37.68,46.64-3.27,124.87-8.27,221.14,8.19,104.71,17.91,182.12,31.15,250.63,90.1,91.68,78.89,155.69,229.58,106.48,358.74-36.32,95.33-121.51,145.32-147.43,160.53-59.42,34.87-114.03,44.24-145.79,49.14-283.83,43.79-569.99,36.47-583.16,36.04-82.66-2.68-155.33-6.71-303.05-9.83-37.57-.79-140.61-2.5-268.65,18.02-44.9,7.2-111.74,20.15-175.28,67.16-41.57,30.76-55.59,56.77-60.61,67.16-30.21,62.52-7.52,124.28-4.91,131.05,20.63,53.53,64.69,79.33,109.75,104.84,91.73,51.93,178.08,61.79,198.21,63.89,170.61,17.78,314.04,9.96,479.96,3.28,330.86-13.32,150.07,2.09,396.42-6.55,36.78-1.29,108.6-4.01,201.49,11.47,91.64,15.27,167.61,29.03,221.14,91.73,9.94,11.64,57.5,67.35,49.14,139.24-2.82,24.25-12.95,58.51-55.7,104.84-89.12,96.58-209.65,125.98-247.35,134.32-89.9,19.9-191.69,26.98-540.57-26.21-225.67-34.4-256.78-48.6-365.29-45.87-195.29,4.92-297.41,56.02-355.47,95.01-70.25,47.18-106.29,96.99-116.3,111.39-22.33,32.11-76.15,109.53-70.44,216.23,5.26,98.19,57.93,165,83.54,196.57,55.55,68.48,122.58,105.13,199.85,137.6,84.87,35.67,218.27,81.51,576.61,126.13,140.41,17.49,206.06,21.17,322.7,50.78,145.79,37.01,214.36,74.68,252.27,98.29,52.21,32.52,124.96,77.82,181.83,167.09,25.83,40.55,91.05,141.64,73.71,262.09-28.94,201.08-258.71,285.02-278.45,291.94-54.37,19.07-104.14,24.22-196.94,22.59-237.55-4.18-326.37-45.23-520.94-67.76-211.63-24.51-405.13-46.93-550.59,67.76-27.84,21.95-106.56,85.92-127.06,194.82-20.88,110.92,31.56,199.84,46.59,224.47,91.04,149.24,272.81,182.12,343.06,194.82,304.95,55.15,618.16-101.22,643.76-114.35,40.73-20.9,103.98-57.03,199.06-72,57.34-9.03,154.47-25.43,249.88,16.94,146.44,65.03,200.6,228.45,237.18,338.82,31.44,94.86,40.08,177.7,42.35,232.94"/>
</svg>